<svg width="62" height="23" viewBox="0 0 62 23" fill="none" xmlns="http://www.w3.org/2000/svg">
<path d="M5.74704 0.377449H8.8735V18.6152H5.27807V4.18131L1.83896 5.14531L0.953125 2.07095L5.74704 0.377449Z" fill="white"/>
<path d="M16.7084 15.0197L14.7543 22.2627H12.0187L13.0608 15.0197H16.7084Z" fill="white"/>
<path d="M25.4187 6.29168C29.1965 6.39589 31.8019 8.97522 31.8019 12.6228C31.8019 16.3485 29.0923 18.9799 25.1842 18.9799C21.2762 18.9799 18.5926 16.3485 18.5926 12.6228C18.5926 11.2159 18.9834 9.96527 19.6608 8.94917L25.3406 0.377449H29.4571L25.4187 6.29168ZM25.1842 15.5929C26.8777 15.5929 28.2325 14.4726 28.2325 12.6228C28.2325 10.799 26.8777 9.67868 25.1842 9.67868C23.4907 9.67868 22.162 10.7729 22.162 12.6228C22.162 14.4726 23.4907 15.5929 25.1842 15.5929Z" fill="white"/>
<path d="M39.4349 7.02118C42.7698 7.02118 45.6618 9.07944 45.6618 12.9875C45.6618 16.8956 42.5874 18.9799 39.1483 18.9799C36.3084 18.9799 33.8333 17.7293 32.7911 15.0718L35.8655 13.2741C36.3084 14.681 37.3245 15.4626 39.1483 15.4626C41.0242 15.4626 42.0663 14.4726 42.0663 12.9875C42.0663 11.5285 41.0242 10.5124 39.2525 10.5124H33.7291L34.4586 0.377449H44.802V3.7384H37.7935L37.559 7.02118H39.4349Z" fill="white"/>
<path d="M54.4678 18.9799C49.8302 18.9799 47.1727 15.1239 47.1727 9.4963C47.1727 3.86867 49.8302 0.0126953 54.4678 0.0126953C59.1314 0.0126953 61.7628 3.86867 61.7628 9.4963C61.7628 15.1239 59.1314 18.9799 54.4678 18.9799ZM54.4678 15.4626C56.9168 15.4626 58.1935 13.3523 58.1935 9.4963C58.1935 5.64033 56.9168 3.50391 54.4678 3.50391C52.0187 3.50391 50.7681 5.64033 50.7681 9.4963C50.7681 13.3523 52.0187 15.4626 54.4678 15.4626Z" fill="white"/>
</svg>
