<svg width="31.040039" height="22.250977" viewBox="0 0 31.04 22.251" fill="none" xmlns="http://www.w3.org/2000/svg" xmlns:xlink="http://www.w3.org/1999/xlink">
	<desc>
			Created with Pixso.
	</desc>
	<defs/>
	<path id="25" d="M0.15 18.67L0.15 21.82L14.45 21.82L14.45 17.75L6.41 17.75L10.6 13.57C12.62 11.55 14.12 9.32 14.12 6.72C14.12 2.44 10.72 0 7.06 0C4.15 0 1.37 1.46 0 4.52L3.54 6.6C4.24 5.07 5.47 4.09 7.12 4.09C8.74 4.09 9.9 5.16 9.9 6.87C9.9 8.31 8.83 9.71 7.45 11.15L0.15 18.67ZM31.04 15.22C31.04 10.63 27.64 8.22 23.73 8.22L21.53 8.22L21.8 4.37L30.03 4.37L30.03 0.42L17.89 0.42L17.04 12.31L23.52 12.31C25.59 12.31 26.82 13.5 26.82 15.22C26.82 16.96 25.59 18.12 23.39 18.12C21.25 18.12 20.06 17.2 19.54 15.55L15.94 17.66C17.16 20.78 20.06 22.25 23.39 22.25C27.43 22.25 31.04 19.8 31.04 15.22Z" fill="#FFFFFF" fill-opacity="1.000000" fill-rule="evenodd"/>
</svg>
