<svg width="31.766357" height="22.250000" viewBox="0 0 31.7664 22.25" fill="none" xmlns="http://www.w3.org/2000/svg" xmlns:xlink="http://www.w3.org/1999/xlink">
	<desc>
			Created with Pixso.
	</desc>
	<defs/>
	<path id="28" d="M0.15 18.67L0.15 21.82L14.45 21.82L14.45 17.75L6.41 17.75L10.6 13.57C12.62 11.55 14.12 9.32 14.12 6.72C14.12 2.44 10.72 0 7.06 0C4.15 0 1.37 1.46 0 4.52L3.54 6.6C4.24 5.07 5.47 4.09 7.12 4.09C8.74 4.09 9.9 5.16 9.9 6.87C9.9 8.31 8.83 9.71 7.45 11.15L0.15 18.67ZM31.76 15.86C31.76 13.69 30.69 11.82 28.8 10.69C30.17 9.71 31.03 8.25 31.03 6.26C31.03 2.13 27.85 0 24.09 0C20.33 0 17.12 2.13 17.12 6.26C17.12 8.25 18.01 9.71 19.35 10.69C17.49 11.82 16.42 13.69 16.42 15.86C16.42 19.8 19.32 22.25 24.09 22.25C28.83 22.25 31.76 19.8 31.76 15.86ZM21.34 6.47C21.34 4.89 22.5 3.97 24.09 3.97C25.68 3.97 26.84 4.89 26.84 6.47C26.84 8.03 25.68 9.01 24.09 9.01C22.5 9.01 21.34 8.03 21.34 6.47ZM27.57 15.31C27.57 17.23 26.11 18.27 24.09 18.27C22.07 18.27 20.61 17.23 20.61 15.31C20.61 13.41 22.07 12.37 24.09 12.37C26.11 12.37 27.57 13.41 27.57 15.31Z" fill="#FFFFFF" fill-opacity="1.000000" fill-rule="evenodd"/>
</svg>
