<svg width="80.559814" height="80.566406" viewBox="0 0 80.5598 80.5664" fill="none" xmlns="http://www.w3.org/2000/svg" xmlns:xlink="http://www.w3.org/1999/xlink">
	<desc>
			Created with Pixso.
	</desc>
	<defs/>
	<path id="Vector" d="M79.71 7.29C79.12 6.65 78.28 6.29 77.41 6.29L64.64 6.29C64.66 5.26 64.67 4.21 64.67 3.14C64.67 1.4 63.26 0 61.52 0L19.03 0C17.3 0 15.89 1.4 15.89 3.14C15.89 4.21 15.9 5.26 15.92 6.29L3.14 6.29C2.27 6.29 1.43 6.65 0.84 7.29C0.24 7.93 -0.06 8.79 0 9.66C0.02 9.91 0.49 15.91 4.52 23.62C6.86 28.1 9.93 32.27 13.65 36.03C18.17 40.6 23.67 44.56 30 47.81C32.9 51.25 35.63 54.53 37.13 58.82L37.13 63.93C35.5 64.38 33.28 65.09 31.05 66.08C22.94 69.7 21.24 74.24 21.24 77.41C21.24 79.15 22.65 80.56 24.39 80.56L55.86 80.56C57.59 80.56 59 79.15 59 77.41C59 74.32 57.34 69.86 49.39 66.19C47.2 65.18 45.02 64.45 43.43 63.98L43.43 58.58C44.9 54.38 47.6 51.2 50.46 47.86C58.89 43.55 65.79 38.01 70.98 31.41C72.05 30.05 71.82 28.07 70.45 26.99C69.08 25.92 67.1 26.16 66.03 27.52C64.14 29.93 61.99 32.18 59.58 34.27C62.22 28.28 63.76 21.31 64.36 12.58L73.62 12.58C73.44 13.27 73.22 14.04 72.94 14.89C72.39 16.54 73.27 18.32 74.92 18.87C75.25 18.98 75.59 19.04 75.92 19.04C77.24 19.04 78.47 18.2 78.91 16.89C80.3 12.73 80.53 9.96 80.55 9.66C80.61 8.79 80.31 7.93 79.71 7.29ZM10.25 21C8.48 17.66 7.48 14.7 6.93 12.58L16.19 12.58C16.8 21.33 18.34 28.31 21 34.31C16.5 30.42 12.9 25.97 10.25 21ZM50.7 74.27L29.49 74.27C30.83 73.16 32.54 72.31 33.53 71.87C36.26 70.64 39.05 69.91 40.26 69.63C43.46 70.41 48.08 72.15 50.7 74.27ZM50.87 37.18C49.36 39.48 47.65 41.48 45.83 43.6C43.88 45.86 41.9 48.17 40.22 50.86C38.54 48.18 36.58 45.85 34.65 43.57C32.86 41.45 31.17 39.45 29.69 37.18C24.79 29.66 22.5 20.31 22.21 6.29L58.34 6.29C58.05 20.31 55.77 29.66 50.87 37.18Z" fill="#0A151B" fill-opacity="1.000000" fill-rule="nonzero"/>
	<path id="Vector" d="M37.13 21.92L37.13 30.68C37.13 32.42 38.54 33.83 40.28 33.83C42.02 33.83 43.43 32.42 43.43 30.68L43.43 15.89C43.43 14.71 42.77 13.64 41.73 13.1C40.69 12.55 39.43 12.64 38.47 13.31L33.75 16.61C32.33 17.61 31.98 19.57 32.98 21C33.92 22.34 35.73 22.73 37.13 21.92Z" fill="#0A151B" fill-opacity="1.000000" fill-rule="nonzero"/>
</svg>
