<svg width="79.662109" height="79.662109" viewBox="0 0 79.6621 79.6621" fill="none" xmlns="http://www.w3.org/2000/svg" xmlns:xlink="http://www.w3.org/1999/xlink">
	<desc>
			Created with Pixso.
	</desc>
	<defs/>
	<path id="Vector" d="M72.89 47.7C72.25 46.1 70.44 45.33 68.84 45.98C67.25 46.62 66.48 48.43 67.12 50.03L70.79 59.09L59.9 54.29C59.12 53.95 58.22 53.94 57.43 54.28C53.71 55.87 49.72 56.67 45.58 56.67C28.92 56.67 17.73 43.63 17.73 31.45C17.73 17.54 30.23 6.22 45.58 6.22C60.94 6.22 73.43 17.54 73.43 31.45C73.43 32.53 73.33 33.83 73.16 35.01C72.9 36.71 74.08 38.29 75.77 38.55C77.47 38.8 79.06 37.63 79.31 35.93C79.53 34.44 79.66 32.84 79.66 31.45C79.66 22.99 76.08 15.06 69.58 9.11C63.15 3.23 54.63 0 45.58 0C36.53 0 28.01 3.23 21.59 9.11C15.78 14.43 12.31 21.33 11.63 28.77C4.33 33.61 0 41.36 0 49.71C0 54.93 1.64 59.88 4.77 64.14L0.22 75.38C-0.25 76.55 0.03 77.9 0.94 78.78C1.53 79.35 2.31 79.66 3.11 79.66C3.53 79.66 3.96 79.57 4.36 79.39L17.47 73.62C20.76 74.84 24.25 75.46 27.85 75.46C27.92 75.46 28 75.46 28.08 75.45C33.28 75.41 38.34 74.04 42.72 71.48C46.64 69.19 49.87 66.04 52.13 62.32C54.34 61.92 56.5 61.32 58.6 60.52L75.29 67.88C75.69 68.06 76.12 68.14 76.54 68.14C77.34 68.14 78.12 67.84 78.71 67.27C79.62 66.38 79.9 65.04 79.43 63.87L72.89 47.7ZM27.85 69.23C27.8 69.23 27.76 69.24 27.72 69.24C24.54 69.22 21.48 68.6 18.63 67.38C17.84 67.04 16.94 67.05 16.15 67.39L8.86 70.61L11.22 64.79C11.65 63.72 11.45 62.49 10.7 61.61C7.77 58.17 6.22 54.05 6.22 49.71C6.22 44.74 8.31 40.03 11.97 36.45C13.11 42.66 16.33 48.61 21.18 53.27C27.21 59.08 35.19 62.45 43.81 62.85C39.77 66.84 33.98 69.23 27.85 69.23Z" fill="#000000" fill-opacity="1.000000" fill-rule="nonzero"/>
	<path id="Vector" d="M48.54 31.58C48.54 33.3 47.15 34.69 45.43 34.69C43.71 34.69 42.32 33.3 42.32 31.58C42.32 29.86 43.71 28.47 45.43 28.47C47.15 28.47 48.54 29.86 48.54 31.58Z" fill="#000000" fill-opacity="1.000000" fill-rule="evenodd"/>
	<path id="Vector" d="M60.99 31.58C60.99 33.3 59.59 34.69 57.87 34.69C56.16 34.69 54.76 33.3 54.76 31.58C54.76 29.86 56.16 28.47 57.87 28.47C59.59 28.47 60.99 29.86 60.99 31.58Z" fill="#000000" fill-opacity="1.000000" fill-rule="evenodd"/>
	<path id="Vector" d="M36.09 31.58C36.09 33.3 34.7 34.69 32.98 34.69C31.26 34.69 29.87 33.3 29.87 31.58C29.87 29.86 31.26 28.47 32.98 28.47C34.7 28.47 36.09 29.86 36.09 31.58Z" fill="#000000" fill-opacity="1.000000" fill-rule="evenodd"/>
</svg>
